<svg width="24" height="24" viewBox="0 0 24 24" fill="none" xmlns="http://www.w3.org/2000/svg">
<path fill-rule="evenodd" clip-rule="evenodd" d="M16.2131 7.99995H7.78714C7.11414 7.99995 6.50714 8.40195 6.20214 9.04895C5.85714 9.78195 5.95714 10.649 6.46014 11.259L10.6741 16.358C11.3461 17.175 12.6541 17.175 13.3261 16.358L17.5391 11.26C18.0431 10.649 18.1441 9.78195 17.7981 9.04895C17.4931 8.40195 16.8861 7.99995 16.2131 7.99995" fill="#F23B3B"/>
<mask id="mask0_113_1391" style="mask-type:alpha" maskUnits="userSpaceOnUse" x="5" y="8" width="14" height="9">
<path fill-rule="evenodd" clip-rule="evenodd" d="M16.2131 7.99995H7.78714C7.11414 7.99995 6.50714 8.40195 6.20214 9.04895C5.85714 9.78195 5.95714 10.649 6.46014 11.259L10.6741 16.358C11.3461 17.175 12.6541 17.175 13.3261 16.358L17.5391 11.26C18.0431 10.649 18.1441 9.78195 17.7981 9.04895C17.4931 8.40195 16.8861 7.99995 16.2131 7.99995" fill="white"/>
</mask>
<g mask="url(#mask0_113_1391)">
</g>
</svg>
