<svg width="36" height="36" viewBox="0 0 36 36" fill="none" xmlns="http://www.w3.org/2000/svg">
<path opacity="0.2" d="M35.4597 22.3546C33.0556 31.9976 23.2884 37.8656 13.6443 35.4615C4.00475 33.0573 -1.86382 23.2901 0.54087 13.6477C2.94387 4.00365 12.7106 -1.86548 22.3518 0.538648C31.9953 2.94277 37.8633 12.7111 35.4592 22.3546H35.4597Z" fill="#F7931A"/>
<path fill-rule="evenodd" clip-rule="evenodd" d="M23.4214 15.9088C23.6641 14.284 22.427 13.4105 20.7354 12.8278L21.2841 10.6268L19.944 10.2929L19.4098 12.4359C19.0579 12.3481 18.6962 12.2653 18.3367 12.1833L18.8748 10.0262L17.5358 9.69226L16.9867 11.8925C16.6951 11.8261 16.4089 11.7605 16.1311 11.6914L16.1327 11.6846L14.285 11.2232L13.9286 12.6542C13.9286 12.6542 14.9226 12.882 14.9016 12.8961C15.4443 13.0316 15.5427 13.3906 15.5259 13.6753L14.9009 16.1828C14.9383 16.1923 14.9867 16.206 15.0402 16.2274L14.899 16.1923L14.0224 19.7048C13.9561 19.8697 13.7878 20.117 13.4085 20.0231C13.4218 20.0426 12.4346 19.78 12.4346 19.78L11.7695 21.314L13.5134 21.7487C13.7103 21.798 13.9047 21.8487 14.097 21.8989L14.0971 21.8989C14.2217 21.9314 14.3453 21.9637 14.4681 21.9952L13.9137 24.2218L15.2519 24.5556L15.8014 22.3531C16.1666 22.4523 16.5215 22.5439 16.8687 22.6301L16.3215 24.8224L17.6613 25.1563L18.2158 22.9343C20.5004 23.3666 22.2187 23.1922 22.941 21.1263C23.5237 19.4625 22.9124 18.5028 21.7104 17.8766C22.5858 17.674 23.2451 17.0982 23.4211 15.9088H23.4214ZM16.4961 20.8077L16.4961 20.8077L16.496 20.8077C16.3982 20.7818 16.3107 20.7587 16.2361 20.7401L16.9718 17.7908C17.063 17.8136 17.1746 17.8386 17.3009 17.8669C18.4315 18.1206 20.7485 18.6406 20.3603 20.2013H20.3599C19.9796 21.7283 17.5889 21.0965 16.4961 20.8077ZM17.5281 16.4983C18.44 16.7416 20.4277 17.2719 20.774 15.8847C21.128 14.4656 19.1951 14.0379 18.2512 13.829C18.1451 13.8055 18.0514 13.7848 17.975 13.7658L17.308 16.4407C17.3711 16.4564 17.4451 16.4762 17.5281 16.4983Z" fill="#F7931A"/>
</svg>
