<svg width="32" height="32" viewBox="0 0 32 32" fill="none" xmlns="http://www.w3.org/2000/svg">
<g id="Iconly/Light-Outline/Filter">
<g id="Group 10">
<path id="Fill 1" fill-rule="evenodd" clip-rule="evenodd" d="M13.4402 24.7904H5.03882C4.48682 24.7904 4.03882 24.3424 4.03882 23.7904C4.03882 23.2384 4.48682 22.7904 5.03882 22.7904H13.4402C13.9922 22.7904 14.4402 23.2384 14.4402 23.7904C14.4402 24.3424 13.9922 24.7904 13.4402 24.7904Z" fill="white"/>
<path id="Fill 3" fill-rule="evenodd" clip-rule="evenodd" d="M25.5879 11.8672H17.1879C16.6359 11.8672 16.1879 11.4192 16.1879 10.8672C16.1879 10.3152 16.6359 9.86719 17.1879 9.86719H25.5879C26.1399 9.86719 26.5879 10.3152 26.5879 10.8672C26.5879 11.4192 26.1399 11.8672 25.5879 11.8672Z" fill="white"/>
<g id="Group 7">
<mask id="mask0_27_11" style="mask-type:alpha" maskUnits="userSpaceOnUse" x="4" y="6" width="9" height="9">
<path id="Clip 6" fill-rule="evenodd" clip-rule="evenodd" d="M4 6.66724H12.3011V14.9227H4V6.66724Z" fill="white"/>
</mask>
<g mask="url(#mask0_27_11)">
<path id="Fill 5" fill-rule="evenodd" clip-rule="evenodd" d="M8.15042 8.66675C6.96509 8.66675 5.99976 9.62142 5.99976 10.7961C5.99976 11.9694 6.96509 12.9227 8.15042 12.9227C9.33709 12.9227 10.3011 11.9694 10.3011 10.7961C10.3011 9.62142 9.33709 8.66675 8.15042 8.66675ZM8.15042 14.9227C5.86242 14.9227 3.99976 13.0721 3.99976 10.7961C3.99976 8.52008 5.86242 6.66675 8.15042 6.66675C10.4398 6.66675 12.3011 8.52008 12.3011 10.7961C12.3011 13.0721 10.4398 14.9227 8.15042 14.9227Z" fill="white"/>
</g>
</g>
<path id="Fill 8" fill-rule="evenodd" clip-rule="evenodd" d="M23.1836 21.6107C21.9969 21.6107 21.0316 22.5654 21.0316 23.7387C21.0316 24.9134 21.9969 25.8667 23.1836 25.8667C24.369 25.8667 25.333 24.9134 25.333 23.7387C25.333 22.5654 24.369 21.6107 23.1836 21.6107ZM23.1836 27.8667C20.8943 27.8667 19.0316 26.0147 19.0316 23.7387C19.0316 21.4627 20.8943 19.6107 23.1836 19.6107C25.4716 19.6107 27.333 21.4627 27.333 23.7387C27.333 26.0147 25.4716 27.8667 23.1836 27.8667Z" fill="white"/>
</g>
</g>
</svg>
