<svg width="32" height="32" viewBox="0 0 32 32" fill="none" xmlns="http://www.w3.org/2000/svg">
<mask id="mask0_113_1155" style="mask-type:alpha" maskUnits="userSpaceOnUse" x="2" y="2" width="27" height="27">
<path fill-rule="evenodd" clip-rule="evenodd" d="M2.6665 2.66669H28.6356V28.636H2.6665V2.66669Z" fill="white"/>
</mask>
<g mask="url(#mask0_113_1155)">
<path fill-rule="evenodd" clip-rule="evenodd" d="M15.6513 4.66669C9.59402 4.66669 4.66602 9.59335 4.66602 15.6507C4.66602 21.708 9.59402 26.636 15.6513 26.636C21.7073 26.636 26.6353 21.708 26.6353 15.6507C26.6353 9.59335 21.7073 4.66669 15.6513 4.66669ZM15.6513 28.636C8.49135 28.636 2.66602 22.8107 2.66602 15.6507C2.66602 8.49069 8.49135 2.66669 15.6513 2.66669C22.8113 2.66669 28.6353 8.49069 28.6353 15.6507C28.6353 22.8107 22.8113 28.636 15.6513 28.636Z" fill="#FDFDFD"/>
</g>
<mask id="mask1_113_1155" style="mask-type:alpha" maskUnits="userSpaceOnUse" x="22" y="23" width="8" height="8">
<path fill-rule="evenodd" clip-rule="evenodd" d="M22.9863 23.6093H29.6851V30.2956H22.9863V23.6093Z" fill="white"/>
</mask>
<g mask="url(#mask1_113_1155)">
<path fill-rule="evenodd" clip-rule="evenodd" d="M28.6853 30.2956C28.4307 30.2956 28.1747 30.1983 27.9787 30.0036L23.28 25.3183C22.8893 24.9276 22.888 24.2943 23.2787 23.9036C23.668 23.5103 24.3013 23.5129 24.6933 23.9009L29.392 28.5876C29.7827 28.9783 29.784 29.6103 29.3933 30.0009C29.1987 30.1983 28.9413 30.2956 28.6853 30.2956Z" fill="#FDFDFD"/>
</g>
</svg>
